<?xml version="1.0" standalone="no"?><!DOCTYPE svg PUBLIC "-//W3C//DTD SVG 1.1//EN" "http://www.w3.org/Graphics/SVG/1.1/DTD/svg11.dtd"><svg t="1762429213712" class="icon" viewBox="0 0 1274 1024" version="1.1" xmlns="http://www.w3.org/2000/svg" p-id="6119" xmlns:xlink="http://www.w3.org/1999/xlink" width="248.828125" height="200"><path d="M175.333878 716.005878l24.743183 4.367673c63.38351 139.326694 192.114939 246.073469 354.262204 274.661878 162.126367 28.588408 319.59249-27.689796 426.819919-136.944327l24.722285 4.367674c-111.950367 120.706612-280.993959 183.881143-455.178449 153.161142-174.205388-30.72-311.421388-147.894857-375.348244-299.61404z m94.375183-535.092245c111.950367-120.706612 280.993959-183.881143 455.178449-153.161143 174.18449 30.72 311.421388 147.894857 375.348245 299.614041l-24.722286-4.367674C1012.088163 183.693061 883.398531 76.925388 721.251265 48.33698 559.124898 19.748571 401.658776 76.026776 294.452245 185.281306l-24.722286-4.367673z m35.73551 558.038204l28.943674 5.099102a374.909388 374.909388 0 0 0 238.090449 148.082939 374.909388 374.909388 0 0 0 274.369306-57.720164l28.943673 5.099102a395.953633 395.953633 0 0 1-306.949224 73.205551 395.953633 395.953633 0 0 1-263.397878-173.76653z m94.354286-535.092245a395.953633 395.953633 0 0 1 306.949225-73.205551 395.953633 395.953633 0 0 1 263.397877 173.76653l-28.943673-5.099102a374.909388 374.909388 0 0 0-238.090449-148.082938 374.909388 374.909388 0 0 0-274.369306 57.720163l-28.943674-5.099102z m-232.259918 1.462857l1029.01551 181.45698a83.591837 83.591837 0 0 1 67.813878 96.841142L1213.54449 771.761633a83.591837 83.591837 0 0 1-96.841143 67.813877l-1029.01551-181.436081a83.591837 83.591837 0 0 1-67.813878-96.841143L70.697796 273.136327a83.591837 83.591837 0 0 1 96.841143-67.813878z m-3.636245 20.605388a62.693878 62.693878 0 0 0-72.620408 50.844734L40.479347 564.913633a62.693878 62.693878 0 0 0 50.844735 72.620408l1029.01551 181.436081a62.693878 62.693878 0 0 0 72.641306-50.844734l50.802939-288.141061a62.693878 62.693878 0 0 0-50.844735-72.620409l-1029.01551-181.436081z m289.666612 265.696653l-177.778939-31.346939-13.562775 76.925388c-1.818122 10.365388 2.445061 16.467592 12.810449 18.306612l143.213714 25.244735a19.894857 19.894857 0 0 0 13.876245-2.904817c4.743837-3.322776 10.34449-19.853061 17.240816-48.94302l27.773388 14.419592c-10.24 36.195265-18.954449 56.946939-25.850775 62.275918-8.024816 5.12-18.139429 6.896327-29.779592 5.43347l-160.182857-28.233143c-24.78498-4.388571-34.60702-19.476898-30.030368-45.411266l26.331429-149.253224 29.946775 5.287184-6.687347 38.034285 147.226123 25.955266 11.577469-65.682286-189.293714-33.374041 5.078204-28.839184 219.846531 38.786613-21.733878 123.297959z m286.92898 94.563265l-15.736164 89.317878-29.675102-5.22449 2.089796-11.828245-142.921143-25.202939-2.089795 11.828245-29.675102-5.22449 15.757061-89.338775 202.271347 35.672816z m-181.665959 21.148735l142.921142 25.182041 4.597551-26.206041-142.900244-25.202939-4.597552 26.226939z m-3.510858-148.58449c-10.950531 8.171102-22.089143 15.715265-33.729306 22.883265l-4.284081-31.346938c33.478531-21.441306 58.723265-46.706939 75.755102-75.776l28.35853 10.929632c-4.179592 7.000816-8.29649 13.395592-12.956734 19.706776l59.621877 10.511673a195.395918 195.395918 0 0 0-8.609959-25.28653l32.036571 0.313469c2.215184 9.299592 4.346776 19.184327 6.269388 30.197551l80.08098 14.12702-4.367674 24.78498-82.964898-14.628571-2.507755 14.106122 70.300735 12.413388-4.054204 23.050449-70.300735-12.413388-2.403265 13.541878 70.885877 12.496979-4.054204 23.050449-70.885877-12.49698-2.549551 14.419592 88.461061 15.589878-4.409469 25.077551-217.255184-38.305959 13.583673-76.946286z m89.965715 69.339429l2.549551-14.398694-70.885878-12.49698-2.528653 14.419592 70.86498 12.476082z m6.603755-37.449143l2.403265-13.541878-70.885877-12.496979-2.382368 13.541877 70.86498 12.49698z m6.478367-36.571429l2.465959-14.147918-70.864979-12.49698-2.507755 14.127021 70.885877 12.496979z m165.135674-23.489306l55.90204 9.863837 2.173388-12.39249 29.403429 5.182694-2.194286 12.39249 44.95151 7.941224-3.657143 20.730776-44.930612-7.941225-1.441959 8.08751 37.177469 6.541062-3.343673 19.017142-108.64849-19.14253 3.343674-19.017143 42.088489 7.418775 1.421062-8.066612-55.902041-9.863837 3.657143-20.751673z m16.404898 107.478204a88.920816 88.920816 0 0 1-26.268735 31.012572l-16.384-21.60849c13.165714-8.965224 21.357714-21.775673 24.659592-38.723919l3.698938-21.044245 113.810286 20.062041-8.171102 46.39347-91.324081-16.091429z m31.117061-24.826775l-22.193633-3.907919-0.71053 4.033306c-0.501551 2.883918-1.253878 5.433469-1.755429 8.29649l22.465306 3.970612 2.194286-12.392489z m19.706775 16.258612l18.724572 3.301877 2.194285-12.392489-18.724571-3.301878-2.194286 12.39249z m84.615837-82.23347l75.483429 13.312-3.907919 22.193633c-0.626939 3.448163 0.522449 5.433469 3.698939 5.997714l20.166531 3.552653-3.657143 20.751674-26.791184-4.722939c-13.834449-2.445061-19.226122-10.532571-16.801959-24.36702l1.170286-6.624653-30.552817-5.391674c-1.212082 6.917224-4.012408 12.664163-7.857632 17.637878-4.033306 4.346776-10.03102 8.024816-18.034939 11.36849l91.909224 16.216816-2.842122 16.133224c-7.98302 9.884735-18.599184 17.805061-31.555918 23.844572 11.264 5.245388 24.534204 10.866939 39.580734 16.48849l-15.673469 19.811265c-21.086041-8.463673-38.514939-17.491592-51.743347-26.644898-15.819755 3.761633-33.666612 5.642449-53.979429 6.227592l-7.188898-23.259429c14.524082 0.188082 27.668898-0.167184 39.162776-1.400163-8.463673-9.236898-13.959837-18.515592-16.760163-27.919674l-10.093715-1.776326 3.615347-20.459102 11.535674 2.027102-12.60147-16.17502c7.941224-4.555755 13.500082-9.195102 16.613878-13.41649 2.654041-4.869224 5.22449-12.747755 7.105306-23.405715z m6.290286 77.176164c3.072 6.185796 9.947429 12.747755 20.020245 19.56049 10.616163-2.883918 19.309714-6.687347 26.080653-11.431184l-46.100898-8.150204z m-116.338939 65.034449c-6.541061 5.099102-12.956735 9.613061-19.644082 13.771755l-21.796571-19.602286c20.396408-11.243102 35.422041-24.032653 45.432163-38.619428l26.582204 10.929632c-2.716735 3.678041-5.454367 7.356082-8.150204 10.741551l131.113796 23.113143-4.576653 25.934367-69.715592-12.288-3.134694 17.867755 108.042449 19.038041-4.681143 26.519511-108.042449-19.058939-4.388571 24.784979 55.045225 9.696653 3.134693-17.867755 29.110858 5.140898-9.508572 53.874939-29.089959-5.140898 1.776326-10.072816-140.308898-24.743184-1.797224 10.072816-29.089959-5.12 9.404081-53.289796 29.08996 5.12-3.051102 17.282613 55.609469 9.822041 4.388571-24.78498-115.837387-20.438204 4.660245-26.498612 115.837387 20.417306 3.134694-17.867755-49.528163-8.735347z" fill="#383B3F" p-id="6120"></path></svg>